<?xml version="1.0" encoding="utf-8"?>
<!-- Generator: Adobe Illustrator 22.1.0, SVG Export Plug-In . SVG Version: 6.00 Build 0)  -->
<svg version="1.1" id="Layer_1" xmlns="http://www.w3.org/2000/svg" xmlns:xlink="http://www.w3.org/1999/xlink" x="0px" y="0px"
	 viewBox="0 0 66 82" style="enable-background:new 0 0 66 82;" xml:space="preserve">
<style type="text/css">
	.st0{fill:url(#path0_2_);fill-opacity:0.5;}
	.st1{fill:#FFFFFF;}
</style>
<g transform="translate(-2081 -832)">
	
		<linearGradient id="path0_2_" gradientUnits="userSpaceOnUse" x1="1701.8909" y1="1303.15" x2="1702.8909" y2="1303.15" gradientTransform="matrix(0 55 40 0 -50012 -92758)">
		<stop  offset="0" style="stop-color:#86CFF3;stop-opacity:0.5"/>
		<stop  offset="1" style="stop-color:#3879A1"/>
	</linearGradient>
	<path id="path0_1_" class="st0" d="M2094,846v55h40v-55H2094z"/>
	<g>
		<g>
			<g>
				<g transform="translate(2104 860)">
					<g>
						<path id="path2" class="st1" d="M10,17.7c2.4,0,4.3-2,4.3-4.4l0-8.8C14.3,2,12.4,0,10,0C7.6,0,5.7,2,5.7,4.4v8.8
							C5.7,15.7,7.6,17.7,10,17.7z M17.6,13.3c0,4.4-3.6,7.5-7.6,7.5c-3.9,0-7.6-3.1-7.6-7.5H0c0,5,3.9,9.2,8.6,9.9V28h2.9v-4.8
							c4.7-0.7,8.6-4.9,8.6-9.9H17.6z"/>
					</g>
				</g>
			</g>
		</g>
	</g>
</g>
</svg>
